<svg width="14" height="14" viewBox="0 0 14 14" fill="none" xmlns="http://www.w3.org/2000/svg">
<path fill-rule="evenodd" clip-rule="evenodd" d="M0.333496 2.33398C0.333496 1.80355 0.54421 1.29484 0.919283 0.919771C1.29436 0.544698 1.80306 0.333984 2.3335 0.333984H6.44816C6.97832 0.334274 7.48667 0.545049 7.8615 0.919984L13.1948 6.25332C13.5698 6.62837 13.7804 7.13699 13.7804 7.66732C13.7804 8.19765 13.5698 8.70626 13.1948 9.08132L9.0815 13.196C8.89577 13.3817 8.67528 13.5291 8.43261 13.6296C8.18993 13.7301 7.92983 13.7819 7.66716 13.7819C7.40449 13.7819 7.14439 13.7301 6.90172 13.6296C6.65904 13.5291 6.43855 13.3817 6.25283 13.196L0.919496 7.86265C0.544397 7.48767 0.333609 6.97904 0.333496 6.44865V2.33398ZM3.66683 3.00065C3.49002 3.00065 3.32045 3.07089 3.19543 3.19591C3.0704 3.32094 3.00016 3.49051 3.00016 3.66732C3.00016 3.84413 3.0704 4.0137 3.19543 4.13872C3.32045 4.26375 3.49002 4.33398 3.66683 4.33398C3.84364 4.33398 4.01388 4.26375 4.1389 4.13872C4.26393 4.0137 4.33416 3.84413 4.33416 3.66732C4.33416 3.49051 4.26393 3.32094 4.1389 3.19591C4.01388 3.07089 3.84364 3.00065 3.66683 3.00065Z" fill="#F2994A"/>
</svg>
