<svg width="22" height="20" viewBox="0 0 22 20" fill="none" xmlns="http://www.w3.org/2000/svg">
<path d="M12.4297 7.86719C11.8883 7.86719 11.4688 8.28672 11.4688 8.80469C11.4688 9.32266 11.8883 9.74219 12.4297 9.74219C12.9242 9.74219 13.3438 9.32266 13.3438 8.80469C13.3438 8.28672 12.9242 7.86719 12.4297 7.86719ZM5.86719 7.86719C5.32578 7.86719 4.90625 8.28672 4.90625 8.80469C4.90625 9.32266 5.32578 9.74219 5.86719 9.74219C6.36172 9.74219 6.78125 9.32266 6.78125 8.80469C6.78125 8.28672 6.36172 7.86719 5.86719 7.86719Z" fill="#828282"/>
<path d="M15.7336 17.8202C13.7826 18.465 11.6787 18.2532 9.92403 17.3114L10.1781 17.1081L11.3163 17.6773L11.321 17.6797L11.385 17.7117L11.454 17.731C12.8992 18.1361 14.4608 18.0918 15.9254 17.5479L15.9391 17.5428L15.9527 17.5371L15.9735 17.5284L18.003 18.2118L19.0025 18.5484L18.9923 17.4938L18.9715 15.3235L18.9901 15.3002C18.9904 15.2998 18.9908 15.2993 18.9911 15.2989C20.9946 12.8151 21.1022 9.26465 19.2016 6.65517C18.7333 6.00418 18.1806 5.46457 17.578 5.03227L17.5675 5.02477L17.5568 5.01763L17.5428 5.00826L16.2736 4.16218V4.08941C17.4652 4.59192 18.534 5.41286 19.3472 6.52872C21.2481 9.14706 21.1986 12.6625 19.326 15.2047L19.1799 15.4031V15.6495V18.7891C19.1783 18.7887 19.1765 18.7882 19.1743 18.7876L16.2012 17.8192L15.9672 17.743L15.7336 17.8202ZM11.4315 16.2896L10.0858 16.7029L8.68607 16.6256C7.95036 16.585 7.2101 16.4395 6.49341 16.1849L6.2566 16.1008L6.01692 16.1764L3.05065 17.1112L3.05015 17.1097L3.03141 14.0043L3.02988 13.7509L2.87492 13.5503C0.776426 10.8342 0.686928 7.00767 2.74743 4.16082C5.30524 0.658282 10.2224 -0.11689 13.7232 2.42801L13.7251 2.42937C14.1872 2.7631 14.6001 3.13741 14.9661 3.54418L15.9129 4.59608L16.4289 5.907C17.3794 8.32198 17.1133 11.1512 15.4798 13.4034C14.446 14.82 13.013 15.8038 11.4315 16.2896ZM6.28203 15.9199L6.2901 15.9233L6.29825 15.9265C9.53069 17.1857 13.2533 16.132 15.3328 13.2787L15.3334 13.2779C17.8165 9.86141 17.0525 5.06867 13.6209 2.57408L13.6196 2.57319C10.1949 0.0943039 5.39631 0.85437 2.89418 4.28572L2.89324 4.28701C0.834298 7.12325 0.981514 10.9847 3.17797 13.664L3.18747 13.6756L3.19743 13.6868L3.19822 13.6877L3.21896 15.8442L3.22868 16.8547L4.19304 16.5527L6.2528 15.9077L6.28203 15.9199Z" stroke="#808080" stroke-width="1.5"/>
<path d="M8.9375 8.80469C8.9375 8.71299 9.00909 8.61719 9.14844 8.61719C9.17986 8.61719 9.21968 8.63044 9.25599 8.66739C9.29165 8.70368 9.3125 8.75184 9.3125 8.80469C9.3125 8.85753 9.29165 8.9057 9.25599 8.94199C9.21968 8.97893 9.17986 8.99219 9.14844 8.99219C9.00909 8.99219 8.9375 8.89639 8.9375 8.80469Z" fill="#828282" stroke="#828282" stroke-width="1.5"/>
</svg>
