<svg width="24" height="24" viewBox="0 0 24 24" fill="none" xmlns="http://www.w3.org/2000/svg">
<path d="M15.6127 9.91352L15.3001 10.1985L15.3004 10.1987L15.6127 9.91352ZM13.1999 14.0985L13.1988 14.0996L13.1994 14.1001L15.2991 16.1999L15.2995 16.1996L14.8947 15.7945L13.2003 14.0989L13.1999 14.0985ZM3.5999 14.3996C3.5999 14.877 3.78954 15.3348 4.12711 15.6724C4.46468 16.01 4.92251 16.1996 5.3999 16.1996C5.87729 16.1996 6.33513 16.01 6.67269 15.6724C7.01026 15.3348 7.1999 14.877 7.1999 14.3996C7.1999 13.9222 7.01026 13.4644 6.67269 13.1268C6.33513 12.7893 5.87729 12.5996 5.3999 12.5996C4.92251 12.5996 4.46468 12.7893 4.12711 13.1268C3.78954 13.4644 3.5999 13.9222 3.5999 14.3996ZM1.7999 19.7996C1.7999 20.3792 2.02882 20.9565 2.55931 21.3992C3.0966 21.8475 3.99589 22.1996 5.3999 22.1996C6.8045 22.1996 7.70374 21.8487 8.24079 21.4012C8.77069 20.9596 8.9999 20.3826 8.9999 19.7996C8.9999 19.4813 8.87347 19.1761 8.64843 18.9511C8.42339 18.726 8.11816 18.5996 7.7999 18.5996H2.9999C2.68164 18.5996 2.37642 18.726 2.15137 18.9511C1.92633 19.1761 1.7999 19.4814 1.7999 19.7996Z" stroke="#0000FF" stroke-width="1.2"/>
</svg>
