<svg width="24" height="24" viewBox="0 0 24 24" fill="none" xmlns="http://www.w3.org/2000/svg">
<g clip-path="url(#clip0_465_3219)">
<path d="M13.458 6.29451L13.3083 6.50066H13.0535H4.00016C3.77915 6.50066 3.56719 6.58845 3.41091 6.74473L3.05735 6.39118L3.41091 6.74473C3.25463 6.90101 3.16683 7.11298 3.16683 7.33399V19.334C3.16683 19.555 3.25463 19.767 3.41091 19.9232L3.05735 20.2768L3.41091 19.9232C3.56719 20.0795 3.77915 20.1673 4.00016 20.1673H20.0002C20.2212 20.1673 20.4331 20.0795 20.5894 19.9232L20.943 20.2768L20.5894 19.9232C20.7457 19.767 20.8335 19.555 20.8335 19.334V4.66732C20.8335 4.44631 20.7457 4.23435 20.5894 4.07807C20.4331 3.92179 20.2212 3.83399 20.0002 3.83399L15.6735 3.83399L15.6722 3.83399C15.5407 3.83365 15.411 3.86442 15.2937 3.92381C15.1766 3.98309 15.0751 4.0692 14.9976 4.17512C14.9975 4.1753 14.9973 4.17548 14.9972 4.17565L13.458 6.29451ZM4.00016 19.834H3.50016V19.334V7.33399V6.83399H4.00016H13.2935L13.3935 6.83399L13.3961 6.83399C13.4219 6.83386 13.4474 6.82771 13.4705 6.81603L13.4796 6.83399L13.4705 6.81603C13.4938 6.80421 13.5141 6.78705 13.5296 6.76596C13.5296 6.76586 13.5297 6.76576 13.5298 6.76566L15.2691 4.3733L15.4188 4.16732H15.6735H20.0002H20.5002V4.66732V7.33399V7.83399H20.0002H14.4602C14.4837 7.86535 14.5095 7.8952 14.5376 7.92324C14.6939 8.07952 14.9058 8.16732 15.1268 8.16732H20.0002H20.5002V8.66732V19.334V19.834H20.0002H4.00016Z" stroke="#AAAAAA"/>
</g>
<defs>
<clipPath id="clip0_465_3219">
<rect width="24" height="24" fill="white"/>
</clipPath>
</defs>
</svg>
