<svg width="24" height="24" viewBox="0 0 24 24" fill="none" xmlns="http://www.w3.org/2000/svg">
<path d="M16.1875 4.3125V4.8125H16.6875H20.625C20.7637 4.8125 20.875 4.9238 20.875 5.0625V20.625C20.875 20.7637 20.7637 20.875 20.625 20.875H3.375C3.2363 20.875 3.125 20.7637 3.125 20.625V5.0625C3.125 4.9238 3.2363 4.8125 3.375 4.8125H7.3125H7.8125V4.3125V3.125H8.5V4.3125V4.8125H9H15H15.5V4.3125V3.125H16.1875V4.3125ZM19.6875 20.1875H20.1875V19.6875V10.7812V10.2812H19.6875H4.3125H3.8125V10.7812V19.6875V20.1875H4.3125H19.6875ZM3.8125 9.1875V9.6875H4.3125H19.6875H20.1875V9.1875V6V5.5H19.6875H16.6875H16.1875V6V6.8125H15.5V6V5.5H15H9H8.5V6V6.8125H7.8125V6V5.5H7.3125H4.3125H3.8125V6V9.1875Z" stroke="#808080"/>
</svg>
