<svg width="24" height="24" viewBox="0 0 24 24" fill="none" xmlns="http://www.w3.org/2000/svg">
<g clip-path="url(#clip0_465_2681)">
<path d="M4.14314 12.9994V8.49084C4.15653 7.60461 4.34465 6.72973 4.69674 5.91633C5.04883 5.10293 5.55796 4.367 6.19496 3.7507C6.83196 3.13441 7.5843 2.64986 8.40889 2.32483C9.23347 1.99979 10.1141 1.84066 11.0003 1.85655C11.8865 1.84066 12.7671 1.99979 13.5917 2.32483C14.4163 2.64986 15.1686 3.13441 15.8056 3.7507C16.4426 4.367 16.9517 5.10293 17.3038 5.91633C17.6559 6.72973 17.844 7.60461 17.8574 8.49084V12.9994M14.4289 21.9994C15.3382 21.9994 16.2102 21.6382 16.8532 20.9952C17.4962 20.3522 17.8574 19.4802 17.8574 18.5708V14.7137M14.4289 21.9994C14.4289 22.5677 14.2031 23.1128 13.8012 23.5146C13.3994 23.9165 12.8543 24.1423 12.286 24.1423H9.71456C9.14624 24.1423 8.6012 23.9165 8.19934 23.5146C7.79747 23.1128 7.57171 22.5677 7.57171 21.9994C7.57171 21.4311 7.79747 20.886 8.19934 20.4842C8.6012 20.0823 9.14624 19.8566 9.71456 19.8566H12.286C12.8543 19.8566 13.3994 20.0823 13.8012 20.4842C14.2031 20.886 14.4289 21.4311 14.4289 21.9994ZM1.57171 10.428H3.28599C3.51332 10.428 3.73134 10.5183 3.89208 10.679C4.05283 10.8398 4.14314 11.0578 4.14314 11.2851V16.428C4.14314 16.6553 4.05283 16.8733 3.89208 17.0341C3.73134 17.1948 3.51332 17.2851 3.28599 17.2851H1.57171C1.11705 17.2851 0.681015 17.1045 0.359525 16.783C0.0380336 16.4615 -0.142578 16.0255 -0.142578 15.5708V12.1423C-0.142578 11.6876 0.0380336 11.2516 0.359525 10.9301C0.681015 10.6086 1.11705 10.428 1.57171 10.428ZM20.4289 17.2851H18.7146C18.4872 17.2851 18.2692 17.1948 18.1085 17.0341C17.9477 16.8733 17.8574 16.6553 17.8574 16.428V11.2851C17.8574 11.0578 17.9477 10.8398 18.1085 10.679C18.2692 10.5183 18.4872 10.428 18.7146 10.428H20.4289C20.8835 10.428 21.3195 10.6086 21.641 10.9301C21.9625 11.2516 22.1431 11.6876 22.1431 12.1423V15.5708C22.1431 16.0255 21.9625 16.4615 21.641 16.783C21.3195 17.1045 20.8835 17.2851 20.4289 17.2851Z" stroke="#808080" stroke-width="1.71429" stroke-linecap="round" stroke-linejoin="round"/>
</g>
<defs>
<clipPath id="clip0_465_2681">
<rect width="24" height="24" fill="white"/>
</clipPath>
</defs>
</svg>
