<svg width="24" height="24" viewBox="0 0 24 24" fill="none" xmlns="http://www.w3.org/2000/svg">
<g clip-path="url(#clip0_465_3233)">
<mask id="mask0_465_3233" style="mask-type:luminance" maskUnits="userSpaceOnUse" x="-1" y="1" width="24" height="24">
<path d="M-1 1H23V25H-1V1Z" fill="white"/>
</mask>
<g mask="url(#mask0_465_3233)">
<mask id="path-2-inside-1_465_3233" fill="white">
<path fill-rule="evenodd" clip-rule="evenodd" d="M1.03483 4.25C1.36483 2.029 3.13483 0.25 5.38083 0.25C6.72583 0.25 7.91383 0.9 8.70983 1.892C8.7742 1.96851 8.82262 2.05712 8.85224 2.15261C8.88186 2.2481 8.8921 2.34855 8.88233 2.44806C8.87257 2.54756 8.84301 2.64411 8.79539 2.73203C8.74777 2.81994 8.68306 2.89745 8.60505 2.95999C8.52704 3.02253 8.43731 3.06884 8.34115 3.0962C8.24498 3.12356 8.14431 3.13141 8.04507 3.1193C7.94582 3.10719 7.85 3.07536 7.76323 3.02568C7.67647 2.97599 7.60051 2.90946 7.53983 2.83C6.99783 2.154 6.22383 1.75 5.37983 1.75C4.05383 1.75 2.85983 2.78 2.55383 4.256C2.69014 4.27333 2.81907 4.32778 2.92654 4.41339C3.03402 4.49901 3.1159 4.6125 3.16327 4.74149C3.21063 4.87047 3.22165 5.00999 3.19512 5.14481C3.16859 5.27963 3.10553 5.40458 3.01283 5.506L2.28283 6.306C2.21255 6.38301 2.12699 6.44453 2.0316 6.48662C1.93621 6.52871 1.83309 6.55045 1.72883 6.55045C1.62457 6.55045 1.52146 6.52871 1.42607 6.48662C1.33068 6.44453 1.24511 6.38301 1.17483 6.306L0.444833 5.506C0.344637 5.39633 0.279264 5.25938 0.257004 5.11251C0.234744 4.96564 0.2566 4.81547 0.319799 4.68103C0.382999 4.5466 0.484695 4.43396 0.611994 4.3574C0.739293 4.28084 0.88646 4.24281 1.03483 4.25ZM11.2498 3C11.2501 2.90151 11.2698 2.80403 11.3077 2.71314C11.3456 2.62225 11.4011 2.53971 11.4709 2.47025C11.5407 2.4008 11.6236 2.34577 11.7147 2.30832C11.8058 2.27088 11.9033 2.25174 12.0018 2.252C13.5488 2.256 14.8018 2.282 15.8088 2.452C16.8368 2.627 17.6808 2.964 18.3588 3.642C19.1068 4.391 19.4388 5.34 19.5968 6.512C19.7498 7.652 19.7498 9.107 19.7498 10.945V15.057C19.7498 16.895 19.7498 18.351 19.5968 19.49C19.4388 20.662 19.1068 21.611 18.3588 22.36C17.6098 23.108 16.6608 23.44 15.4888 23.598C14.3488 23.751 12.8938 23.751 11.0558 23.751H10.9438C9.10583 23.751 7.64983 23.751 6.51083 23.598C5.33883 23.44 4.38983 23.108 3.64083 22.36C2.89283 21.611 2.56083 20.662 2.40283 19.49C2.24983 18.35 2.24983 16.895 2.24983 15.057V12.002C2.24983 11.8031 2.32885 11.6123 2.4695 11.4717C2.61016 11.331 2.80092 11.252 2.99983 11.252C3.19875 11.252 3.38951 11.331 3.53016 11.4717C3.67082 11.6123 3.74983 11.8031 3.74983 12.002V15C3.74983 16.907 3.75183 18.262 3.88983 19.29C4.02483 20.295 4.27883 20.875 4.70183 21.298C5.12483 21.721 5.70483 21.975 6.71083 22.11C7.73883 22.248 9.09283 22.25 10.9998 22.25C12.9068 22.25 14.2608 22.248 15.2898 22.11C16.2948 21.975 16.8748 21.721 17.2978 21.298C17.7208 20.875 17.9748 20.295 18.1098 19.289C18.2478 18.262 18.2498 16.907 18.2498 15V11C18.2498 9.093 18.2478 7.739 18.1098 6.71C17.9748 5.705 17.7208 5.125 17.2978 4.702C16.9128 4.317 16.3998 4.073 15.5578 3.93C14.6938 3.784 13.5648 3.756 11.9978 3.75C11.7993 3.74947 11.609 3.67022 11.4688 3.52962C11.3286 3.38903 11.2498 3.19857 11.2498 3ZM9.26983 3.451C9.37406 3.45094 9.47716 3.47261 9.57254 3.51462C9.66793 3.55663 9.75351 3.61807 9.82383 3.695L10.5538 4.495C10.654 4.60467 10.7194 4.74162 10.7417 4.88849C10.7639 5.03536 10.7421 5.18553 10.6789 5.31997C10.6157 5.4544 10.514 5.56704 10.3867 5.6436C10.2594 5.72016 10.1122 5.75719 9.96383 5.75C9.63583 7.971 7.86583 9.75 5.61983 9.75C4.36983 9.75 3.25183 9.188 2.46183 8.31C2.39591 8.23679 2.34505 8.15131 2.31216 8.05844C2.27927 7.96557 2.265 7.86714 2.27015 7.76876C2.27531 7.67037 2.29979 7.57397 2.3422 7.48504C2.38461 7.39612 2.44412 7.31642 2.51733 7.2505C2.59054 7.18458 2.67602 7.13372 2.76889 7.10083C2.86176 7.06794 2.96019 7.05367 3.05858 7.05882C3.15696 7.06397 3.25337 7.08846 3.34229 7.13087C3.43121 7.17328 3.51091 7.23279 3.57683 7.306C4.11083 7.9 4.83483 8.25 5.61983 8.25C6.94583 8.25 8.13983 7.22 8.44583 5.744C8.30952 5.72667 8.1806 5.67222 8.07312 5.58661C7.96565 5.50099 7.88376 5.3875 7.8364 5.25851C7.78903 5.12953 7.77802 4.99001 7.80455 4.85519C7.83107 4.72037 7.89413 4.59542 7.98683 4.494L8.71683 3.694C8.78715 3.61707 8.87274 3.55563 8.96812 3.51362C9.06351 3.47161 9.1666 3.44994 9.27083 3.45L9.26983 3.451ZM7.24983 20C7.24983 19.8011 7.32885 19.6103 7.4695 19.4697C7.61016 19.329 7.80092 19.25 7.99983 19.25H13.9998C14.1987 19.25 14.3895 19.329 14.5302 19.4697C14.6708 19.6103 14.7498 19.8011 14.7498 20C14.7498 20.1989 14.6708 20.3897 14.5302 20.5303C14.3895 20.671 14.1987 20.75 13.9998 20.75H7.99983C7.80092 20.75 7.61016 20.671 7.4695 20.5303C7.32885 20.3897 7.24983 20.1989 7.24983 20Z"/>
</mask>
<path fill-rule="evenodd" clip-rule="evenodd" d="M1.03483 4.25C1.36483 2.029 3.13483 0.25 5.38083 0.25C6.72583 0.25 7.91383 0.9 8.70983 1.892C8.7742 1.96851 8.82262 2.05712 8.85224 2.15261C8.88186 2.2481 8.8921 2.34855 8.88233 2.44806C8.87257 2.54756 8.84301 2.64411 8.79539 2.73203C8.74777 2.81994 8.68306 2.89745 8.60505 2.95999C8.52704 3.02253 8.43731 3.06884 8.34115 3.0962C8.24498 3.12356 8.14431 3.13141 8.04507 3.1193C7.94582 3.10719 7.85 3.07536 7.76323 3.02568C7.67647 2.97599 7.60051 2.90946 7.53983 2.83C6.99783 2.154 6.22383 1.75 5.37983 1.75C4.05383 1.75 2.85983 2.78 2.55383 4.256C2.69014 4.27333 2.81907 4.32778 2.92654 4.41339C3.03402 4.49901 3.1159 4.6125 3.16327 4.74149C3.21063 4.87047 3.22165 5.00999 3.19512 5.14481C3.16859 5.27963 3.10553 5.40458 3.01283 5.506L2.28283 6.306C2.21255 6.38301 2.12699 6.44453 2.0316 6.48662C1.93621 6.52871 1.83309 6.55045 1.72883 6.55045C1.62457 6.55045 1.52146 6.52871 1.42607 6.48662C1.33068 6.44453 1.24511 6.38301 1.17483 6.306L0.444833 5.506C0.344637 5.39633 0.279264 5.25938 0.257004 5.11251C0.234744 4.96564 0.2566 4.81547 0.319799 4.68103C0.382999 4.5466 0.484695 4.43396 0.611994 4.3574C0.739293 4.28084 0.88646 4.24281 1.03483 4.25ZM11.2498 3C11.2501 2.90151 11.2698 2.80403 11.3077 2.71314C11.3456 2.62225 11.4011 2.53971 11.4709 2.47025C11.5407 2.4008 11.6236 2.34577 11.7147 2.30832C11.8058 2.27088 11.9033 2.25174 12.0018 2.252C13.5488 2.256 14.8018 2.282 15.8088 2.452C16.8368 2.627 17.6808 2.964 18.3588 3.642C19.1068 4.391 19.4388 5.34 19.5968 6.512C19.7498 7.652 19.7498 9.107 19.7498 10.945V15.057C19.7498 16.895 19.7498 18.351 19.5968 19.49C19.4388 20.662 19.1068 21.611 18.3588 22.36C17.6098 23.108 16.6608 23.44 15.4888 23.598C14.3488 23.751 12.8938 23.751 11.0558 23.751H10.9438C9.10583 23.751 7.64983 23.751 6.51083 23.598C5.33883 23.44 4.38983 23.108 3.64083 22.36C2.89283 21.611 2.56083 20.662 2.40283 19.49C2.24983 18.35 2.24983 16.895 2.24983 15.057V12.002C2.24983 11.8031 2.32885 11.6123 2.4695 11.4717C2.61016 11.331 2.80092 11.252 2.99983 11.252C3.19875 11.252 3.38951 11.331 3.53016 11.4717C3.67082 11.6123 3.74983 11.8031 3.74983 12.002V15C3.74983 16.907 3.75183 18.262 3.88983 19.29C4.02483 20.295 4.27883 20.875 4.70183 21.298C5.12483 21.721 5.70483 21.975 6.71083 22.11C7.73883 22.248 9.09283 22.25 10.9998 22.25C12.9068 22.25 14.2608 22.248 15.2898 22.11C16.2948 21.975 16.8748 21.721 17.2978 21.298C17.7208 20.875 17.9748 20.295 18.1098 19.289C18.2478 18.262 18.2498 16.907 18.2498 15V11C18.2498 9.093 18.2478 7.739 18.1098 6.71C17.9748 5.705 17.7208 5.125 17.2978 4.702C16.9128 4.317 16.3998 4.073 15.5578 3.93C14.6938 3.784 13.5648 3.756 11.9978 3.75C11.7993 3.74947 11.609 3.67022 11.4688 3.52962C11.3286 3.38903 11.2498 3.19857 11.2498 3ZM9.26983 3.451C9.37406 3.45094 9.47716 3.47261 9.57254 3.51462C9.66793 3.55663 9.75351 3.61807 9.82383 3.695L10.5538 4.495C10.654 4.60467 10.7194 4.74162 10.7417 4.88849C10.7639 5.03536 10.7421 5.18553 10.6789 5.31997C10.6157 5.4544 10.514 5.56704 10.3867 5.6436C10.2594 5.72016 10.1122 5.75719 9.96383 5.75C9.63583 7.971 7.86583 9.75 5.61983 9.75C4.36983 9.75 3.25183 9.188 2.46183 8.31C2.39591 8.23679 2.34505 8.15131 2.31216 8.05844C2.27927 7.96557 2.265 7.86714 2.27015 7.76876C2.27531 7.67037 2.29979 7.57397 2.3422 7.48504C2.38461 7.39612 2.44412 7.31642 2.51733 7.2505C2.59054 7.18458 2.67602 7.13372 2.76889 7.10083C2.86176 7.06794 2.96019 7.05367 3.05858 7.05882C3.15696 7.06397 3.25337 7.08846 3.34229 7.13087C3.43121 7.17328 3.51091 7.23279 3.57683 7.306C4.11083 7.9 4.83483 8.25 5.61983 8.25C6.94583 8.25 8.13983 7.22 8.44583 5.744C8.30952 5.72667 8.1806 5.67222 8.07312 5.58661C7.96565 5.50099 7.88376 5.3875 7.8364 5.25851C7.78903 5.12953 7.77802 4.99001 7.80455 4.85519C7.83107 4.72037 7.89413 4.59542 7.98683 4.494L8.71683 3.694C8.78715 3.61707 8.87274 3.55563 8.96812 3.51362C9.06351 3.47161 9.1666 3.44994 9.27083 3.45L9.26983 3.451ZM7.24983 20C7.24983 19.8011 7.32885 19.6103 7.4695 19.4697C7.61016 19.329 7.80092 19.25 7.99983 19.25H13.9998C14.1987 19.25 14.3895 19.329 14.5302 19.4697C14.6708 19.6103 14.7498 19.8011 14.7498 20C14.7498 20.1989 14.6708 20.3897 14.5302 20.5303C14.3895 20.671 14.1987 20.75 13.9998 20.75H7.99983C7.80092 20.75 7.61016 20.671 7.4695 20.5303C7.32885 20.3897 7.24983 20.1989 7.24983 20Z" stroke="#808080" stroke-width="2" mask="url(#path-2-inside-1_465_3233)"/>
</g>
</g>
<defs>
<clipPath id="clip0_465_3233">
<rect width="24" height="24" fill="white"/>
</clipPath>
</defs>
</svg>
