<svg width="20" height="20" viewBox="0 0 20 20" fill="none" xmlns="http://www.w3.org/2000/svg">
<path d="M3.89645 7.14645L4.25 6.79289L4.60355 7.14645L6.85355 9.39645L7.20711 9.75L6.85355 10.1036L4.60355 12.3536L4.25 12.7071L3.89645 12.3536L1.64645 10.1036L1.29289 9.75L1.64645 9.39645L3.89645 7.14645ZM9.89645 1.14645L10.25 0.792893L10.6036 1.14645L12.8536 3.39645L13.2071 3.75L12.8536 4.10355L10.6036 6.35355L10.25 6.70711L9.89645 6.35355L7.64645 4.10355L7.29289 3.75L7.64645 3.39645L9.89645 1.14645ZM9.89645 13.1464L10.25 12.7929L10.6036 13.1464L12.8536 15.3964L13.2071 15.75L12.8536 16.1036L10.6036 18.3536L10.25 18.7071L9.89645 18.3536L7.64645 16.1036L7.29289 15.75L7.64645 15.3964L9.89645 13.1464ZM15.8964 7.14645L16.25 6.79289L16.6036 7.14645L18.8536 9.39645L19.2071 9.75L18.8536 10.1036L16.6036 12.3536L16.25 12.7071L15.8964 12.3536L13.6464 10.1036L13.2929 9.75L13.6464 9.39645L15.8964 7.14645ZM4.25 13C4.48822 13 4.73722 12.9057 4.94645 12.6964L7.19645 10.4464C7.40567 10.2372 7.5 9.98822 7.5 9.75C7.5 9.51178 7.40567 9.26278 7.19645 9.05355L4.94645 6.80355C4.73722 6.59433 4.48822 6.5 4.25 6.5C4.01178 6.5 3.76278 6.59433 3.55355 6.80355L1.30355 9.05355C1.09433 9.26278 1 9.51178 1 9.75C1 9.98822 1.09433 10.2372 1.30355 10.4464L3.55355 12.6964C3.76278 12.9057 4.01178 13 4.25 13ZM10.25 7C10.4882 7 10.7372 6.90567 10.9464 6.69645L13.1964 4.44645C13.4057 4.23722 13.5 3.98822 13.5 3.75C13.5 3.51178 13.4057 3.26278 13.1964 3.05355L10.9464 0.803553C10.7372 0.594329 10.4882 0.5 10.25 0.5C10.0118 0.5 9.76278 0.594329 9.55355 0.803553L7.30355 3.05355C7.09433 3.26278 7 3.51178 7 3.75C7 3.98822 7.09433 4.23722 7.30355 4.44645L9.55355 6.69645C9.76278 6.90567 10.0118 7 10.25 7ZM10.25 19C10.4882 19 10.7372 18.9057 10.9464 18.6964L13.1964 16.4464C13.4057 16.2372 13.5 15.9882 13.5 15.75C13.5 15.5118 13.4057 15.2628 13.1964 15.0536L10.9464 12.8036C10.7372 12.5943 10.4882 12.5 10.25 12.5C10.0118 12.5 9.76278 12.5943 9.55355 12.8036L7.30355 15.0536C7.09433 15.2628 7 15.5118 7 15.75C7 15.9882 7.09433 16.2372 7.30355 16.4464L9.55355 18.6964C9.76278 18.9057 10.0118 19 10.25 19ZM16.25 13C16.4882 13 16.7372 12.9057 16.9464 12.6964L19.1964 10.4464C19.4057 10.2372 19.5 9.98822 19.5 9.75C19.5 9.51178 19.4057 9.26278 19.1964 9.05355L16.9464 6.80355C16.7372 6.59433 16.4882 6.5 16.25 6.5C16.0118 6.5 15.7628 6.59433 15.5536 6.80355L13.3036 9.05355C13.0943 9.26278 13 9.51178 13 9.75C13 9.98822 13.0943 10.2372 13.3036 10.4464L15.5536 12.6964C15.7628 12.9057 16.0118 13 16.25 13Z" stroke="#AAAAAA"/>
</svg>
