<svg width="24" height="24" viewBox="0 0 24 24" fill="none" xmlns="http://www.w3.org/2000/svg">
<mask id="path-1-inside-1_465_1366" fill="white">
<path d="M20.3996 15.5L18.5796 14.2C18.8796 13.12 18.8996 11.95 18.5796 10.78L20.3996 9.5L18.9496 7L16.9196 7.92C16.1296 7.12 15.1296 6.5 13.9596 6.21L13.7596 4H10.8596L10.6596 6.21C9.48965 6.5 8.48965 7.12 7.69965 7.92L5.66965 7L4.21965 9.5L6.03965 10.78C5.71965 11.95 5.73965 13.12 6.03965 14.2L4.21965 15.5L5.66965 18L7.69965 17.07C8.48965 17.86 9.48965 18.46 10.6596 18.77L10.8596 21H13.7596L13.9596 18.77C15.1296 18.46 16.1296 17.86 16.9196 17.07L18.9496 18L20.3996 15.5ZM14.3096 3C14.5796 3 14.8096 3.2 14.8096 3.46L14.9896 5.5C15.7496 5.78 16.4296 6.19 17.0396 6.68L18.8896 5.81C19.1196 5.69 19.4096 5.77 19.5496 6L21.5496 9.5C21.6896 9.71 21.6096 10 21.3896 10.15L19.7196 11.32C19.8496 12.12 19.8396 12.91 19.7196 13.68L21.3896 14.85C21.6096 15 21.6896 15.29 21.5496 15.5L19.5496 19C19.4096 19.21 19.1196 19.29 18.8896 19.17L17.0396 18.31C16.4296 18.8 15.7496 19.2 14.9896 19.5L14.8096 21.5C14.8096 21.79 14.5796 22 14.3096 22H10.3096C10.177 22 10.0499 21.9473 9.9561 21.8536C9.86233 21.7598 9.80965 21.6326 9.80965 21.5L9.62965 19.5C8.86965 19.2 8.18965 18.8 7.57965 18.31L5.72965 19.17C5.49965 19.29 5.20965 19.21 5.06965 19L3.06965 15.5C2.92965 15.29 3.00965 15 3.22965 14.85L4.89965 13.68C4.77965 12.91 4.76965 12.12 4.89965 11.32L3.22965 10.15C3.00965 10 2.92965 9.71 3.06965 9.5L5.06965 6C5.20965 5.77 5.49965 5.69 5.72965 5.81L7.57965 6.68C8.18965 6.19 8.86965 5.78 9.62965 5.5L9.80965 3.46C9.80965 3.2 10.0396 3 10.3096 3H14.3096ZM12.3096 9C13.2379 9 14.1281 9.36875 14.7845 10.0251C15.4409 10.6815 15.8096 11.5717 15.8096 12.5C15.8096 13.4283 15.4409 14.3185 14.7845 14.9749C14.1281 15.6313 13.2379 16 12.3096 16C11.3814 16 10.4912 15.6313 9.83478 14.9749C9.1784 14.3185 8.80965 13.4283 8.80965 12.5C8.80965 11.5717 9.1784 10.6815 9.83478 10.0251C10.4912 9.36875 11.3814 9 12.3096 9ZM12.3096 10C11.6466 10 11.0107 10.2634 10.5419 10.7322C10.073 11.2011 9.80965 11.837 9.80965 12.5C9.80965 13.163 10.073 13.7989 10.5419 14.2678C11.0107 14.7366 11.6466 15 12.3096 15C12.9727 15 13.6086 14.7366 14.0774 14.2678C14.5463 13.7989 14.8096 13.163 14.8096 12.5C14.8096 11.837 14.5463 11.2011 14.0774 10.7322C13.6086 10.2634 12.9727 10 12.3096 10Z"/>
</mask>
<path d="M20.3996 15.5L22.1297 16.5034L23.0424 14.9299L21.5621 13.8725L20.3996 15.5ZM18.5796 14.2L16.6526 13.6647L16.2779 15.0137L17.4172 15.8275L18.5796 14.2ZM18.5796 10.78L17.4291 9.14407L16.2798 9.95236L16.6505 11.3076L18.5796 10.78ZM20.3996 9.5L21.5502 11.1359L23.0491 10.0817L22.1297 8.49656L20.3996 9.5ZM18.9496 7L20.6797 5.99656L19.772 4.43151L18.1241 5.17835L18.9496 7ZM16.9196 7.92L15.4966 9.32529L16.4758 10.3169L17.7452 9.74165L16.9196 7.92ZM13.9596 6.21L11.9678 6.39026L12.0961 7.80863L13.4785 8.15126L13.9596 6.21ZM13.7596 4L15.7515 3.81974L15.5868 2H13.7596V4ZM10.8596 4V2H9.03247L8.86779 3.81974L10.8596 4ZM10.6596 6.21L11.1408 8.15126L12.5232 7.80863L12.6515 6.39026L10.6596 6.21ZM7.69965 7.92L6.87407 9.74165L8.14347 10.3169L9.12273 9.32529L7.69965 7.92ZM5.66965 7L6.49523 5.17835L4.84732 4.43151L3.93959 5.99656L5.66965 7ZM4.21965 9.5L2.48959 8.49656L1.57018 10.0817L3.06911 11.1359L4.21965 9.5ZM6.03965 10.78L7.9688 11.3076L8.33947 9.95236L7.19019 9.14407L6.03965 10.78ZM6.03965 14.2L7.20213 15.8275L8.3414 15.0137L7.96668 13.6647L6.03965 14.2ZM4.21965 15.5L3.05717 13.8725L1.57691 14.9299L2.48959 16.5034L4.21965 15.5ZM5.66965 18L3.93959 19.0034L4.85105 20.5749L6.50265 19.8183L5.66965 18ZM7.69965 17.07L9.11386 15.6558L8.1307 14.6726L6.86665 15.2517L7.69965 17.07ZM10.6596 18.77L12.6517 18.5913L12.5265 17.1956L11.1719 16.8367L10.6596 18.77ZM10.8596 21L8.86764 21.1787L9.03099 23H10.8596V21ZM13.7596 21V23H15.5883L15.7517 21.1787L13.7596 21ZM13.9596 18.77L13.4474 16.8367L12.0928 17.1956L11.9676 18.5913L13.9596 18.77ZM16.9196 17.07L17.7527 15.2517L16.4886 14.6726L15.5054 15.6558L16.9196 17.07ZM18.9496 18L18.1166 19.8183L19.7683 20.5749L20.6797 19.0034L18.9496 18ZM14.8096 3.46H12.8096V3.54806L12.8174 3.63579L14.8096 3.46ZM14.9896 5.5L12.9974 5.67579L13.1088 6.93847L14.2982 7.37669L14.9896 5.5ZM17.0396 6.68L15.7871 8.23924L16.7607 9.02129L17.8908 8.48986L17.0396 6.68ZM18.8896 5.81L19.7408 7.61986L19.7782 7.60228L19.8148 7.58317L18.8896 5.81ZM19.5496 6L21.2861 5.00772L21.2724 4.98372L21.258 4.96011L19.5496 6ZM21.5496 9.5L19.8132 10.4923L19.8473 10.5521L19.8855 10.6094L21.5496 9.5ZM21.3896 10.15L20.263 8.49754L20.2525 8.5047L20.2421 8.512L21.3896 10.15ZM19.7196 11.32L18.5721 9.682L17.5443 10.4021L17.7455 11.6408L19.7196 11.32ZM19.7196 13.68L17.7435 13.372L17.5516 14.6031L18.5721 15.318L19.7196 13.68ZM21.3896 14.85L20.2421 16.488L20.2525 16.4953L20.263 16.5025L21.3896 14.85ZM21.5496 15.5L19.8855 14.3906L19.8473 14.4479L19.8132 14.5077L21.5496 15.5ZM19.5496 19L21.2137 20.1094L21.252 20.0521L21.2861 19.9923L19.5496 19ZM18.8896 19.17L19.8148 17.3968L19.7742 17.3757L19.7327 17.3564L18.8896 19.17ZM17.0396 18.31L17.8827 16.4964L16.7559 15.9726L15.7871 16.7508L17.0396 18.31ZM14.9896 19.5L14.2553 17.6397L13.1082 18.0925L12.9977 19.3207L14.9896 19.5ZM14.8096 21.5L12.8177 21.3207L12.8096 21.4102V21.5H14.8096ZM9.80965 21.5H11.8096V21.4102L11.8016 21.3207L9.80965 21.5ZM9.62965 19.5L11.6216 19.3207L11.5111 18.0925L10.364 17.6397L9.62965 19.5ZM7.57965 18.31L8.83215 16.7508L7.86338 15.9726L6.73656 16.4964L7.57965 18.31ZM5.72965 19.17L4.88656 17.3564L4.84508 17.3757L4.80452 17.3968L5.72965 19.17ZM5.06965 19L3.33316 19.9923L3.36734 20.0521L3.40555 20.1094L5.06965 19ZM3.06965 15.5L4.80614 14.5077L4.77196 14.4479L4.73375 14.3906L3.06965 15.5ZM3.22965 14.85L4.35632 16.5025L4.36682 16.4953L4.37723 16.488L3.22965 14.85ZM4.89965 13.68L6.04723 15.318L7.06765 14.6031L6.8758 13.372L4.89965 13.68ZM4.89965 11.32L6.87375 11.6408L7.07504 10.4021L6.04723 9.682L4.89965 11.32ZM3.22965 10.15L4.37723 8.512L4.36682 8.5047L4.35632 8.49754L3.22965 10.15ZM3.06965 9.5L4.73375 10.6094L4.77196 10.5521L4.80614 10.4923L3.06965 9.5ZM5.06965 6L3.36125 4.96011L3.34688 4.98372L3.33316 5.00772L5.06965 6ZM5.72965 5.81L4.80452 7.58317L4.84114 7.60228L4.87853 7.61986L5.72965 5.81ZM7.57965 6.68L6.72853 8.48986L7.85858 9.02129L8.83215 8.23924L7.57965 6.68ZM9.62965 5.5L10.3211 7.37669L11.5105 6.93847L11.6219 5.67579L9.62965 5.5ZM9.80965 3.46L11.8019 3.63579L11.8096 3.54806V3.46H9.80965ZM12.3096 9V7V9ZM15.8096 12.5H17.8096H15.8096ZM8.80965 12.5H6.80965H8.80965ZM21.5621 13.8725L19.7421 12.5725L17.4172 15.8275L19.2372 17.1275L21.5621 13.8725ZM20.5067 14.7353C20.9015 13.314 20.9257 11.7767 20.5088 10.2524L16.6505 11.3076C16.8736 12.1233 16.8578 12.926 16.6526 13.6647L20.5067 14.7353ZM19.7302 12.4159L21.5502 11.1359L19.2491 7.86407L17.4291 9.14407L19.7302 12.4159ZM22.1297 8.49656L20.6797 5.99656L17.2196 8.00344L18.6696 10.5034L22.1297 8.49656ZM18.1241 5.17835L16.0941 6.09835L17.7452 9.74165L19.7752 8.82165L18.1241 5.17835ZM18.3427 6.51471C17.323 5.4821 16.0061 4.65673 14.4408 4.26874L13.4785 8.15126C14.2532 8.34327 14.9363 8.7579 15.4966 9.32529L18.3427 6.51471ZM15.9515 6.02974L15.7515 3.81974L11.7678 4.18026L11.9678 6.39026L15.9515 6.02974ZM13.7596 2H10.8596V6H13.7596V2ZM8.86779 3.81974L8.66779 6.02974L12.6515 6.39026L12.8515 4.18026L8.86779 3.81974ZM10.1785 4.26874C8.61317 4.65673 7.29627 5.4821 6.27657 6.51471L9.12273 9.32529C9.68303 8.7579 10.3661 8.34327 11.1408 8.15126L10.1785 4.26874ZM8.52523 6.09835L6.49523 5.17835L4.84407 8.82165L6.87407 9.74165L8.52523 6.09835ZM3.93959 5.99656L2.48959 8.49656L5.94971 10.5034L7.39971 8.00344L3.93959 5.99656ZM3.06911 11.1359L4.88911 12.4159L7.19019 9.14407L5.37019 7.86407L3.06911 11.1359ZM4.1105 10.2524C3.6936 11.7767 3.71781 13.314 4.11261 14.7353L7.96668 13.6647C7.76149 12.926 7.7457 12.1233 7.9688 11.3076L4.1105 10.2524ZM4.87717 12.5725L3.05717 13.8725L5.38213 17.1275L7.20213 15.8275L4.87717 12.5725ZM2.48959 16.5034L3.93959 19.0034L7.39971 16.9966L5.94971 14.4966L2.48959 16.5034ZM6.50265 19.8183L8.53265 18.8883L6.86665 15.2517L4.83665 16.1817L6.50265 19.8183ZM6.28544 18.4842C7.31718 19.516 8.62565 20.3001 10.1474 20.7033L11.1719 16.8367C10.3536 16.6199 9.66212 16.204 9.11386 15.6558L6.28544 18.4842ZM8.66764 18.9487L8.86764 21.1787L12.8517 20.8213L12.6517 18.5913L8.66764 18.9487ZM10.8596 23H13.7596V19H10.8596V23ZM15.7517 21.1787L15.9517 18.9487L11.9676 18.5913L11.7676 20.8213L15.7517 21.1787ZM14.4719 20.7033C15.9936 20.3001 17.3021 19.516 18.3339 18.4842L15.5054 15.6558C14.9572 16.204 14.2657 16.6199 13.4474 16.8367L14.4719 20.7033ZM16.0866 18.8883L18.1166 19.8183L19.7826 16.1817L17.7527 15.2517L16.0866 18.8883ZM20.6797 19.0034L22.1297 16.5034L18.6696 14.4966L17.2196 16.9966L20.6797 19.0034ZM14.3096 5C13.6695 5 12.8096 4.48947 12.8096 3.46H16.8096C16.8096 1.91053 15.4898 1 14.3096 1V5ZM12.8174 3.63579L12.9974 5.67579L16.9819 5.32421L16.8019 3.28421L12.8174 3.63579ZM14.2982 7.37669C14.8247 7.57066 15.3184 7.86269 15.7871 8.23924L18.2922 5.12076C17.5409 4.51731 16.6746 3.98934 15.6811 3.62331L14.2982 7.37669ZM17.8908 8.48986L19.7408 7.61986L18.0385 4.00014L16.1885 4.87014L17.8908 8.48986ZM19.8148 7.58317C19.0935 7.95947 18.2388 7.693 17.8413 7.03989L21.258 4.96011C20.5805 3.847 19.1458 3.42053 17.9645 4.03683L19.8148 7.58317ZM17.8132 6.99228L19.8132 10.4923L23.2861 8.50772L21.2861 5.00772L17.8132 6.99228ZM19.8855 10.6094C19.3007 9.73207 19.7613 8.83957 20.263 8.49754L22.5163 11.8025C23.458 11.1604 24.0786 9.68793 23.2137 8.3906L19.8855 10.6094ZM20.2421 8.512L18.5721 9.682L20.8672 12.958L22.5372 11.788L20.2421 8.512ZM17.7455 11.6408C17.839 12.2159 17.8337 12.7929 17.7435 13.372L21.6958 13.988C21.8455 13.0271 21.8603 12.0241 21.6938 10.9992L17.7455 11.6408ZM18.5721 15.318L20.2421 16.488L22.5372 13.212L20.8672 12.042L18.5721 15.318ZM20.263 16.5025C19.7613 16.1604 19.3007 15.2679 19.8855 14.3906L23.2137 16.6094C24.0786 15.3121 23.458 13.8396 22.5163 13.1975L20.263 16.5025ZM19.8132 14.5077L17.8132 18.0077L21.2861 19.9923L23.2861 16.4923L19.8132 14.5077ZM17.8855 17.8906C18.2996 17.2695 19.1187 17.0337 19.8148 17.3968L17.9645 20.9432C19.1206 21.5463 20.5197 21.1505 21.2137 20.1094L17.8855 17.8906ZM19.7327 17.3564L17.8827 16.4964L16.1966 20.1236L18.0466 20.9836L19.7327 17.3564ZM15.7871 16.7508C15.3316 17.1167 14.8258 17.4145 14.2553 17.6397L15.724 21.3603C16.6735 20.9855 17.5277 20.4833 18.2922 19.8692L15.7871 16.7508ZM12.9977 19.3207L12.8177 21.3207L16.8016 21.6793L16.9816 19.6793L12.9977 19.3207ZM12.8096 21.5C12.8096 20.6334 13.5278 20 14.3096 20V24C15.6315 24 16.8096 22.9466 16.8096 21.5H12.8096ZM14.3096 20H10.3096V24H14.3096V20ZM10.3096 20C10.7075 20 11.089 20.158 11.3703 20.4393L8.54188 23.2678C9.01073 23.7366 9.64661 24 10.3096 24V20ZM11.3703 20.4393C11.6516 20.7206 11.8096 21.1022 11.8096 21.5H7.80965C7.80965 22.163 8.07304 22.7989 8.54188 23.2678L11.3703 20.4393ZM11.8016 21.3207L11.6216 19.3207L7.6377 19.6793L7.8177 21.6793L11.8016 21.3207ZM10.364 17.6397C9.79345 17.4145 9.28773 17.1167 8.83215 16.7508L6.32714 19.8692C7.09157 20.4833 7.94585 20.9855 8.89532 21.3603L10.364 17.6397ZM6.73656 16.4964L4.88656 17.3564L6.57274 20.9836L8.42274 20.1236L6.73656 16.4964ZM4.80452 17.3968C5.50061 17.0337 6.31967 17.2695 6.73375 17.8906L3.40555 20.1094C4.09963 21.1505 5.49869 21.5463 6.65478 20.9432L4.80452 17.3968ZM6.80614 18.0077L4.80614 14.5077L1.33316 16.4923L3.33316 19.9923L6.80614 18.0077ZM4.73375 14.3906C5.31864 15.2679 4.85796 16.1604 4.35632 16.5025L2.10298 13.1975C1.16134 13.8396 0.540659 15.3121 1.40555 16.6094L4.73375 14.3906ZM4.37723 16.488L6.04723 15.318L3.75207 12.042L2.08207 13.212L4.37723 16.488ZM6.8758 13.372C6.78555 12.7929 6.78031 12.2159 6.87375 11.6408L2.92554 10.9992C2.75899 12.0241 2.77375 13.0271 2.9235 13.988L6.8758 13.372ZM6.04723 9.682L4.37723 8.512L2.08207 11.788L3.75207 12.958L6.04723 9.682ZM4.35632 8.49754C4.85796 8.83957 5.31864 9.73207 4.73375 10.6094L1.40555 8.3906C0.540659 9.68793 1.16134 11.1604 2.10298 11.8025L4.35632 8.49754ZM4.80614 10.4923L6.80614 6.99228L3.33316 5.00772L1.33316 8.50772L4.80614 10.4923ZM6.77805 7.03989C6.3805 7.693 5.52576 7.95947 4.80452 7.58317L6.65478 4.03683C5.47354 3.42053 4.0388 3.847 3.36125 4.96011L6.77805 7.03989ZM4.87853 7.61986L6.72853 8.48986L8.43077 4.87014L6.58077 4.00014L4.87853 7.61986ZM8.83215 8.23924C9.30092 7.86269 9.79457 7.57066 10.3211 7.37669L8.93824 3.62331C7.94473 3.98934 7.07838 4.51731 6.32714 5.12076L8.83215 8.23924ZM11.6219 5.67579L11.8019 3.63579L7.81739 3.28421L7.63739 5.32421L11.6219 5.67579ZM11.8096 3.46C11.8096 4.48947 10.9498 5 10.3096 5V1C9.12953 1 7.80965 1.91053 7.80965 3.46H11.8096ZM10.3096 5H14.3096V1H10.3096V5ZM12.3096 11C12.7075 11 13.089 11.158 13.3703 11.4393L16.1987 8.61091C15.1673 7.57946 13.7683 7 12.3096 7V11ZM13.3703 11.4393C13.6516 11.7206 13.8096 12.1022 13.8096 12.5H17.8096C17.8096 11.0413 17.2302 9.64236 16.1987 8.61091L13.3703 11.4393ZM13.8096 12.5C13.8096 12.8978 13.6516 13.2794 13.3703 13.5607L16.1987 16.3891C17.2302 15.3576 17.8096 13.9587 17.8096 12.5H13.8096ZM13.3703 13.5607C13.089 13.842 12.7075 14 12.3096 14V18C13.7683 18 15.1673 17.4205 16.1987 16.3891L13.3703 13.5607ZM12.3096 14C11.9118 14 11.5303 13.842 11.249 13.5607L8.42056 16.3891C9.45201 17.4205 10.851 18 12.3096 18V14ZM11.249 13.5607C10.9677 13.2794 10.8096 12.8978 10.8096 12.5H6.80965C6.80965 13.9587 7.38911 15.3576 8.42056 16.3891L11.249 13.5607ZM10.8096 12.5C10.8096 12.1022 10.9677 11.7206 11.249 11.4393L8.42056 8.61091C7.38911 9.64236 6.80965 11.0413 6.80965 12.5H10.8096ZM11.249 11.4393C11.5303 11.158 11.9118 11 12.3096 11V7C10.851 7 9.45201 7.57946 8.42056 8.61091L11.249 11.4393ZM12.3096 8C11.1162 8 9.97158 8.47411 9.12767 9.31802L11.9561 12.1464C12.0499 12.0527 12.177 12 12.3096 12V8ZM9.12767 9.31802C8.28375 10.1619 7.80965 11.3065 7.80965 12.5H11.8096C11.8096 12.3674 11.8623 12.2402 11.9561 12.1464L9.12767 9.31802ZM7.80965 12.5C7.80965 13.6935 8.28375 14.8381 9.12767 15.682L11.9561 12.8536C11.8623 12.7598 11.8096 12.6326 11.8096 12.5H7.80965ZM9.12767 15.682C9.97158 16.5259 11.1162 17 12.3096 17V13C12.177 13 12.0499 12.9473 11.9561 12.8536L9.12767 15.682ZM12.3096 17C13.5031 17 14.6477 16.5259 15.4916 15.682L12.6632 12.8536C12.5694 12.9473 12.4423 13 12.3096 13V17ZM15.4916 15.682C16.3355 14.8381 16.8096 13.6935 16.8096 12.5H12.8096C12.8096 12.6326 12.757 12.7598 12.6632 12.8536L15.4916 15.682ZM16.8096 12.5C16.8096 11.3065 16.3355 10.1619 15.4916 9.31802L12.6632 12.1464C12.757 12.2402 12.8096 12.3674 12.8096 12.5H16.8096ZM15.4916 9.31802C14.6477 8.47411 13.5031 8 12.3096 8V12C12.4423 12 12.5694 12.0527 12.6632 12.1464L15.4916 9.31802Z" fill="#808080" mask="url(#path-1-inside-1_465_1366)"/>
</svg>
